<svg xmlns="http://www.w3.org/2000/svg" version="1.1" xmlns:xlink="http://www.w3.org/1999/xlink" width="1000" height="1000"><g clip-path="url(#SvgjsClipPath1068)"><rect width="1000" height="1000" fill="#ffffff"></rect><g transform="matrix(0.93307389593798,0,0,0.93307389593798,107.98022750062586,50)"><svg xmlns="http://www.w3.org/2000/svg" version="1" width="840.27594" height="964.55383" viewBox="0 0 840.27594 964.55383" preserveAspectRatio="xMidYMid" id="svg18" xmlns:svg="http://www.w3.org/2000/svg"><defs id="defs18"><clipPath id="SvgjsClipPath1068"><rect width="1000" height="1000" x="0" y="0" rx="350" ry="350"></rect></clipPath></defs><g fill="#fcfcfc" id="g4" transform="matrix(1.489851,0,0,1.489851,-342.66573,-283.9413)">
    <path d="m 480.4,549.2 c -3.3,-2 -6.8,-4.3 -7.7,-5.1 -2.7,-2.2 -2.1,-8.7 1.3,-14.8 l 3.1,-5.4 -3.4,-5.7 -3.3,-5.7 -9.5,-0.5 -9.4,-0.5 -0.9,-7.7 c -0.5,-4.4 -0.5,-10.7 0,-14.5 l 0.9,-6.8 9.4,-0.5 9.5,-0.5 3.4,-5.8 3.3,-5.8 -3,-5.4 c -3.8,-6.8 -4.1,-12.2 -0.8,-15.2 1.2,-1.2 5.2,-3.8 8.9,-5.8 5.3,-2.9 7.6,-3.6 11,-3.3 4.2,0.3 4.4,0.5 8.7,7.6 l 4.3,7.3 5.6,-0.3 c 5.6,-0.3 5.7,-0.4 8.8,-5.3 6.7,-10.7 9.7,-11.7 19.9,-6.4 10.8,5.7 11.5,6.4 11.5,12 0,3.5 -0.8,6.3 -2.7,9.8 l -2.7,4.8 3.1,5.9 3.2,5.9 8.8,0.3 c 6.8,0.2 9.1,0.6 10.1,1.9 0.8,1.1 1.2,5.6 1.2,13.3 0,7.7 -0.4,12.2 -1.2,13.3 -1,1.3 -3.3,1.7 -9.8,1.9 l -8.5,0.3 -3.2,5 c -1.8,2.7 -3.3,5.6 -3.3,6.3 0,0.7 1.2,3.1 2.6,5.4 3,4.8 4.1,10.6 2.5,13.6 -0.6,1.1 -4.4,3.9 -8.5,6.1 -5.9,3.3 -8.4,4.1 -12.4,4.1 -5.6,0 -5.5,0.1 -11.2,-9.2 -2.9,-4.8 -3,-4.8 -8.3,-4.8 h -5.4 l -4.4,6.8 -4.4,6.7 -5.5,0.2 c -4.8,0.2 -6.3,-0.2 -11.6,-3.5 z m 39.5,-40 c 5.1,-4 8.2,-10.4 7.1,-14.3 -2.3,-8 -10,-13.6 -17.2,-12.4 -5.3,0.9 -11.4,6.4 -13,11.7 -1.1,3.6 -0.9,4.5 1.2,8.6 3.2,6 10.1,10.5 14.9,9.8 1.9,-0.3 5.1,-1.8 7,-3.4 z" id="path2"></path>
    <path d="m 563.3,333.8 c -6.1,-3.5 -6.5,-5.1 -3.3,-13.6 3.3,-8.6 2.2,-16.6 -2.9,-22.1 -3.6,-3.9 -6.9,-4 -10.3,-0.3 -3.8,4.1 -5.1,7.1 -5.7,13.7 -0.5,5.4 -0.8,6 -3,6.3 -3.1,0.5 -15.1,-2.6 -17,-4.3 -1.1,-1.1 -1.1,-3 -0.2,-11.2 1.8,-15.3 7.6,-25.1 17.7,-30.3 4.2,-2.1 6.3,-2.5 14,-2.5 8.3,0 9.4,0.2 13.9,3 9.5,5.9 15.2,16.7 16.2,31 0.7,10.2 -1,21.2 -4.4,28.1 -2.5,5.1 -2.8,5.4 -6.2,5.3 -2.1,0 -5.8,-1.3 -8.8,-3.1 z" id="path3"></path>
    <path d="m 446.6,333.7 c -4.7,-7.2 -7.1,-27 -4.6,-37.8 2.6,-11 8.8,-19.9 16.6,-23.9 4.2,-2.1 6.3,-2.5 13.9,-2.5 9.8,0 12.5,1 19.1,6.7 6.7,5.9 11.4,18.7 11.4,31 v 6.7 l -6.6,2.1 c -3.6,1.1 -7.9,2 -9.4,2 -2.6,0 -2.9,-0.4 -3.4,-4.2 -1.8,-11.9 -5.8,-18.8 -10.8,-18.8 -4.6,0 -10.8,9.2 -10.8,16 0,1.6 0.9,5.3 2,8.2 1.1,2.9 2,6.8 2,8.5 0,2.9 -0.6,3.5 -5,5.8 -6.4,3.3 -12.4,3.4 -14.4,0.2 z" id="path4"></path>
  </g><g fill="#212121" id="g7" transform="matrix(1.489851,0,0,1.489851,-342.66573,-283.9413)">
    <path d="m 499.5,832.9 c -12.8,-5.9 -22,-10.2 -67,-30.6 -70.2,-32 -109.3,-49.9 -149.7,-68.6 L 265,725.5 264.9,674 c -0.1,-28.3 -0.4,-52.6 -0.8,-54 -0.6,-2 -3.4,-3.7 -16,-9.5 -8.4,-3.9 -15.9,-7.9 -16.7,-9 -0.8,-1 -1.4,-3.4 -1.4,-5.3 0,-3.3 30.4,-81 33.6,-85.9 0.9,-1.4 13.6,-8.4 33.5,-18.3 17.6,-8.8 33,-16.7 34.2,-17.5 1.2,-0.8 2.7,-1.5 3.5,-1.5 0.7,0 2.8,-1.1 4.5,-2.4 5.9,-4.3 5.7,-4.6 5.7,7.1 v 10.8 l -24.2,12.1 -24.1,12.1 23.9,10.5 c 19.5,8.6 24,11 24.2,12.7 0.4,2.4 7.5,6.6 9.8,5.7 1.1,-0.4 1.4,-10.2 1.6,-57.8 l 0.3,-57.3 2.2,-3.1 c 4.9,-6.9 -6.4,-6.4 153.4,-6.4 h 144.2 l 3.7,2.1 c 2.1,1.2 4.7,3.8 5.9,5.9 2.1,3.7 2.1,4.6 2.1,59.8 0,32.6 0.4,56.3 0.9,56.6 0.5,0.4 3,-0.3 5.5,-1.4 3.6,-1.5 4.6,-2.4 4.6,-4.3 0,-2 1.1,-2.8 6.3,-4.9 10.7,-4.4 39.2,-17 39.9,-17.7 0.5,-0.4 -9.8,-5.8 -22.7,-12.1 L 679,489.6 v -9.8 c 0,-7.3 0.3,-9.8 1.3,-9.8 0.7,0 16.1,7.3 34.2,16.3 18.2,8.9 35.9,17.6 39.4,19.3 l 6.3,3 16.9,41.9 c 9.3,23.1 16.9,43.4 16.9,45.2 0,3.6 -3.8,8.8 -7.3,9.9 -1.2,0.4 -5.8,2.4 -10.2,4.4 -4.4,2.1 -10.1,4.7 -12.7,5.8 l -4.8,2.1 v 53.9 53.8 L 723.3,742 c -19.7,9 -38.5,17.6 -41.8,19.1 -3.3,1.5 -25.3,11.6 -49,22.4 -23.6,10.9 -45.9,21.1 -49.5,22.7 -27.3,12.5 -53.8,24.6 -60.9,27.9 -4.6,2.1 -9.1,3.9 -10,3.9 -0.9,0 -6.5,-2.3 -12.6,-5.1 z m 2.4,-93.1 v -76.3 l -4.2,9 c -2.4,5 -7.8,17 -12.2,26.8 l -7.9,17.7 h -3.8 c -4,0 -10.6,-2.8 -56.3,-24 -12.1,-5.5 -26.3,-12.1 -31.5,-14.5 -5.2,-2.4 -19.2,-8.8 -31,-14.3 -11.8,-5.5 -29.6,-13.7 -39.5,-18.2 -9.9,-4.6 -21.8,-10 -26.4,-12.1 -4.6,-2.2 -8.5,-3.9 -8.7,-3.9 -0.2,0 -0.4,19 -0.4,42.3 v 42.3 l 54.3,24.9 c 29.8,13.6 70.2,32.1 89.7,41 19.5,9 44.7,20.6 56,25.8 11.3,5.3 20.8,9.6 21.2,9.6 0.4,0.1 0.8,-34.2 0.7,-76.1 z m 26.7,73.6 c 3.3,-1.4 6.7,-2.9 7.6,-3.5 4.4,-2.3 54.1,-24.9 54.9,-24.9 0.5,0 2,-0.6 3.2,-1.4 1.9,-1.3 54.1,-25.6 59.2,-27.6 1.1,-0.4 16.6,-7.5 34.5,-15.8 17.9,-8.2 33.2,-15.2 34,-15.4 0.8,-0.2 6.1,-2.6 11.8,-5.3 l 10.2,-4.9 v -42.3 c 0,-23.3 -0.2,-42.3 -0.4,-42.3 -0.2,0 -9.3,4.1 -20.2,9.1 -11,5 -24.6,11.2 -30.4,13.9 -5.8,2.6 -28.7,13.2 -51,23.5 -22.3,10.3 -45.9,21.2 -52.4,24.2 -6.5,2.9 -13.1,5.9 -14.5,6.7 -10.8,5.5 -23.4,10.6 -26.1,10.6 -2.5,0 -3.1,-1 -8.5,-13.2 -3.2,-7.3 -7,-15.8 -8.3,-18.8 -1.4,-3 -4.2,-9.3 -6.3,-14 l -3.9,-8.5 v 76.3 c 0,41.9 0.2,76.2 0.4,76.2 0.2,0 3,-1.2 6.2,-2.6 z M 478,661.5 c 11.3,-24.3 18,-39.1 18,-39.6 0,-0.6 -26.6,-12.4 -38.2,-17 -2.9,-1.1 -13.8,-5.7 -24.3,-10.1 -31.1,-13.1 -96.9,-41.2 -127.8,-54.3 -15.8,-6.8 -28.9,-12 -29.1,-11.7 -0.7,1.3 -24.5,60.7 -24.8,62.1 -0.2,1 3.6,3.2 11.7,6.9 29.8,13.5 119.9,55.1 153.5,70.8 5.2,2.5 18,8.4 28.5,13.2 l 19,8.8 6.3,-13.5 c 3.4,-7.5 6.7,-14.5 7.2,-15.6 z m 85,27.2 c 1.9,-0.7 6.7,-2.9 10.5,-4.9 3.9,-1.9 12,-5.8 18,-8.6 6.1,-2.7 15.5,-7.1 21,-9.7 18.6,-8.8 78.7,-36.5 79.2,-36.5 0.2,0 5.6,-2.5 11.9,-5.5 6.4,-3 11.8,-5.5 12,-5.5 0.2,0 5,-2.2 10.7,-4.9 8.7,-4.1 16.4,-7.5 25.2,-11.1 1.1,-0.5 3.1,-1.2 4.5,-1.6 1.4,-0.3 3.2,-1.2 4,-2 0.9,-0.7 4.2,-2.5 7.3,-3.9 3.2,-1.4 5.6,-2.9 5.4,-3.3 -0.3,-0.4 -6,-14.4 -12.7,-31.2 -6.7,-16.8 -12.5,-30.8 -12.8,-31.2 -0.4,-0.4 -12.2,4.3 -26.2,10.4 -14,6.1 -43,18.5 -64.5,27.5 -21.4,9.1 -46.9,19.9 -56.5,24 -9.6,4.1 -23.8,10.1 -31.5,13.3 -26.2,11 -39,16.5 -40.2,17.3 -1.2,0.8 -0.1,3.4 12.7,30.2 3.4,7.2 8.2,17.5 10.7,23 4.7,10.4 7.2,15.5 7.6,15.5 0.1,0 1.8,-0.6 3.7,-1.3 z m -64.1,-145.9 4.4,-6.8 h 8.4 8.3 l 3,4.8 c 6.8,11 6.9,11.1 17.6,5.1 9.4,-5.1 10,-6.3 6.8,-12 -6.1,-11 -6,-9.9 -2.3,-16 5.4,-9 5.2,-8.9 14.5,-8.9 10.1,0 10.4,-0.3 10.4,-12 0,-11.8 -0.2,-12 -11,-12 h -8.8 l -2.9,-5.2 c -1.6,-2.9 -3.5,-6.3 -4.3,-7.4 -1.2,-1.9 -0.9,-2.8 2.3,-8.8 2.1,-3.7 3.7,-7.5 3.7,-8.6 0,-2.1 -2.9,-4.4 -11.4,-8.8 -7,-3.7 -8.2,-3.3 -12.1,3.5 -4.8,8.3 -4.8,8.3 -14.1,8.3 h -8.3 l -4.1,-7.1 c -2.3,-3.8 -4.8,-7.3 -5.5,-7.6 -1.7,-0.6 -14.8,6.3 -17.7,9.4 l -2.2,2.3 4.1,7.8 4,7.7 -4.2,7 -4.1,7 -9.5,0.5 -9.4,0.5 -0.7,5.4 c -0.5,2.9 -0.5,8.1 -0.1,11.5 l 0.8,6.1 9.4,0.5 9.4,0.5 4.3,7 4.2,7 -4,7.4 c -3.1,5.6 -3.9,7.8 -3.1,9 1.8,2.8 14.6,10.1 17.3,9.8 1.9,-0.1 3.6,-1.9 6.9,-6.9 z" id="path5"></path>
    <path d="m 502.3,513.5 c -7.8,-4.8 -11.4,-14.9 -8.2,-23.2 3,-8.2 14.1,-13.6 22.8,-11.2 7.9,2.2 14.1,10.5 14.1,18.9 0,4 -4.1,11.1 -8.3,14.4 -3.1,2.5 -4.9,3.1 -10,3.4 -5.3,0.2 -6.8,-0.1 -10.4,-2.3 z" id="path6"></path>
    <path d="m 376.3,408.6 c 1.5,-3.8 9,-15.8 14.9,-23.7 11.2,-15.2 17.3,-28.8 19.8,-44.4 0.5,-3.3 1.9,-19.9 3,-37 2.2,-32 3.5,-41.5 7.4,-52 9.2,-24.4 25,-41.7 47.4,-52.2 14,-6.6 24.8,-8.7 44.7,-8.7 14.4,-0.1 17,0.2 25.7,2.6 30.7,8.6 53.6,30 64,59.8 4,11.5 5.3,20.7 6.8,46.5 2.8,51.4 5.3,60.7 23,85.5 7.6,10.6 15,23.5 13.9,24.2 -0.2,0.2 -12.1,0.1 -26.4,-0.2 l -26,-0.5 -3.2,-6.5 c -4.2,-8.5 -7.1,-18 -10.8,-35.3 -0.8,-3.8 -1,-3.7 -25.3,7.4 -22.3,10.3 -30.9,12.9 -42.6,12.9 -13,0 -19.8,-2.1 -43.7,-13 -12.2,-5.5 -22.9,-10 -23.8,-9.8 -1,0.2 -1.7,1.5 -1.9,3.3 -0.7,7.3 -5.7,24.7 -9.4,32.8 l -4.1,8.7 h -22.2 c -12.2,0 -24.4,0.3 -27,0.7 -4.3,0.5 -4.8,0.4 -4.2,-1.1 z m 147.6,-33.7 c 2.4,-0.5 12.7,-4.8 23,-9.6 10.2,-4.7 20,-9 21.6,-9.6 1.7,-0.5 3.8,-1.7 4.8,-2.5 1.6,-1.5 1.6,-1.7 -1,-4.5 -5.5,-5.7 -33.5,-20.8 -45.7,-24.6 -8.1,-2.5 -19.6,-2.8 -27.6,-0.7 -7.1,1.9 -17.9,7 -33.2,15.7 -12.1,6.8 -17.7,11.4 -16.1,13 1.7,1.7 38,18.1 46.3,21 9.2,3.1 19.4,3.8 27.9,1.8 z m 51.5,-46.4 c 7.1,-14.6 5,-35.6 -4.8,-47.3 -12.6,-14.9 -34.1,-10.3 -43.2,9.3 -2.7,5.8 -4.6,19.1 -3,20.4 1.7,1.2 12.4,4 13,3.3 0.3,-0.3 0.6,-2.5 0.6,-4.9 0,-16 15.8,-24.3 23.5,-12.4 4.7,7.3 5.1,17.9 1.1,27.5 l -1.5,3.5 5.2,3 c 2.9,1.6 5.5,3 5.8,3 0.3,0.1 1.8,-2.4 3.3,-5.4 z m -117.4,2 c 2.8,-1.4 5,-2.6 5,-2.8 0,-0.1 -0.9,-2.6 -2,-5.5 -5.3,-13.9 0.1,-29.5 10.7,-30.8 7.6,-1 12.5,4.7 14.4,16.9 0.6,3.4 1.1,6.2 1.2,6.3 0.1,0.1 3,-0.7 6.5,-1.7 6.2,-2 6.2,-2 6.2,-5.7 0,-9.4 -5.5,-22.8 -11.4,-28 -5.8,-5.1 -9.5,-6.6 -16.1,-6.6 -13.1,-0.1 -23.7,10 -27.5,26.3 -2.2,9.4 0,24.9 4.6,31.8 1.8,2.9 2.4,2.9 8.4,-0.2 z" id="path7"></path>
  </g><g fill="#e0b57c" id="g10" transform="matrix(1.489851,0,0,1.489851,-342.66573,-283.9413)">
    <path d="m 479,810.3 c -12.4,-5.8 -38.5,-17.9 -58,-26.8 -19.5,-8.9 -59.9,-27.4 -89.7,-41 L 277,717.6 V 670.8 624 l 5.3,2.4 c 4.9,2.2 25.2,11.5 53.7,24.6 6.9,3.2 19.5,9 28,12.9 8.5,4 19.8,9.2 25,11.6 5.2,2.4 19.4,9 31.5,14.5 32.9,15.3 52.3,24 53.3,24 0.4,0 4.5,-8.2 9,-18.2 13.5,-30.2 19.2,-42.3 20.1,-42.6 0.5,-0.2 1.1,0.7 1.5,2 0.3,1.3 0.6,39.1 0.6,84.1 0,77.1 -0.1,81.7 -1.8,81.6 -0.9,0 -11.8,-4.8 -24.2,-10.6 z" id="path8"></path>
    <path d="m 444.5,685.9 c -35.2,-16.5 -39.3,-18.4 -61.5,-28.7 -20.1,-9.4 -94.3,-43.5 -123.5,-56.9 -8.8,-4 -12.9,-6.4 -12.7,-7.4 0.2,-0.8 6.4,-16.6 13.9,-35.1 9.4,-23.5 14,-33.8 15.1,-33.8 0.8,0 15,5.8 31.6,12.9 62.4,26.7 144.7,61.6 155.6,66 16.5,6.6 37.5,16 37.8,17 0.2,0.5 -3.7,9.6 -8.6,20.3 -4.9,10.6 -10.2,22 -11.6,25.3 -7.4,16.4 -13.1,28.1 -14,29.1 -0.8,0.8 -7,-1.6 -22.1,-8.7 z" id="path9"></path>
    <path d="m 555.1,691.3 c -1,-2.1 -4.1,-8.7 -6.9,-14.8 -2.7,-6 -7.3,-15.9 -10.2,-22 -2.9,-6 -7.7,-16.2 -10.6,-22.5 -5.3,-11.5 -5.3,-11.5 -3.2,-13 2,-1.4 8.5,-4.2 41.3,-18 7.7,-3.2 21.9,-9.2 31.5,-13.3 9.6,-4.1 35.1,-14.9 56.5,-24 21.5,-9 51.7,-22 67.3,-28.7 15.5,-6.8 28.4,-12.1 28.6,-11.9 0.9,1.1 27.6,69.1 27.6,70.2 0,0.8 -2.9,2.6 -6.5,4.1 -3.5,1.6 -6.9,3.4 -7.5,4.1 -0.6,0.8 -2.6,1.7 -4.3,2.1 -1.7,0.3 -3.8,1 -4.7,1.4 -0.8,0.5 -4.4,2 -8,3.5 -3.6,1.6 -11.1,5 -16.7,7.6 -5.7,2.7 -10.5,4.9 -10.7,4.9 -0.2,0 -5.6,2.5 -12,5.5 -6.3,3 -11.7,5.5 -11.9,5.5 -0.5,0 -60.6,27.7 -79.2,36.5 -5.5,2.6 -14.9,6.9 -21,9.7 -6,2.8 -14.4,6.7 -18.5,8.7 -10.4,5.2 -16.9,8.1 -18,8.1 -0.5,0 -1.8,-1.7 -2.9,-3.7 z" id="path10"></path>
  </g><g fill="#b48d5f" id="g12" transform="matrix(1.489851,0,0,1.489851,-342.66573,-283.9413)">
    <path d="m 519,737 c 0,-70.5 0.2,-84 1.4,-84 0.8,0 3.4,4.6 6.1,10.8 2.7,5.9 6.3,13.9 8,17.7 1.7,3.9 5.8,12.9 9,20.1 l 5.7,13.2 6.7,-3 c 9,-4 13.1,-5.9 16.2,-7.4 1.4,-0.8 8,-3.8 14.5,-6.7 6.5,-3 30.1,-13.9 52.4,-24.2 22.3,-10.3 46.1,-21.3 53,-24.5 6.9,-3.1 21.6,-9.8 32.6,-14.8 11.1,-5.1 20.6,-9.2 21.3,-9.2 0.8,0 1.1,12.4 1.1,46.3 v 46.3 l -10.2,4.9 c -5.7,2.7 -11,5.1 -11.8,5.3 -0.8,0.2 -16.1,7.2 -34,15.4 -17.9,8.3 -33.4,15.4 -34.5,15.8 -5.1,2 -57.3,26.3 -59.2,27.6 -1.2,0.8 -2.7,1.4 -3.2,1.4 -0.8,0 -49.9,22.3 -54.9,24.9 -5.2,2.8 -17.6,8.1 -18.8,8.1 -1.2,0 -1.4,-12.8 -1.4,-84 z" id="path11"></path>
    <path d="m 277.3,629 c 0,-2.5 0.2,-3.5 0.4,-2.2 0.2,1.2 0.2,3.2 0,4.5 -0.2,1.2 -0.4,0.2 -0.4,-2.3 z" id="path12"></path>
  </g><g fill="#e79a2c" id="g13" transform="matrix(1.489851,0,0,1.489851,-342.66573,-283.9413)">
    <path d="m 493,376.1 c -9.6,-3.3 -44.8,-19.4 -46.9,-21.6 -1.7,-1.7 -0.8,-5.6 2.2,-8.9 4.6,-5.2 37.2,-22.5 47.7,-25.2 8.5,-2.2 25.4,-1.8 33.6,0.7 12.2,3.8 40.2,18.9 45.6,24.6 5.4,5.7 4,10.4 -3.7,13 -1.6,0.6 -11.4,4.9 -21.6,9.6 -10.3,4.8 -20.6,9.1 -23,9.6 -2.4,0.6 -9.1,1.1 -14.9,1.1 -9,0 -11.7,-0.5 -19,-2.9 z" id="path13"></path>
  </g><g fill="#846342" id="g18" transform="matrix(1.489851,0,0,1.489851,-342.66573,-283.9413)">
    <path d="m 504.5,692 c 0,-20.1 0.1,-28.3 0.2,-18.3 0.2,10.1 0.2,26.5 0,36.5 -0.1,10.1 -0.2,1.9 -0.2,-18.2 z" id="path14"></path>
    <path d="m 746.5,674.5 c 0,-23.6 0.1,-33.2 0.2,-21.2 0.2,12 0.2,31.4 0,43 -0.1,11.7 -0.2,1.9 -0.2,-21.8 z" id="path15"></path>
    <path d="m 519.2,657.8 c -0.2,-4 0.1,-4.8 1.6,-4.8 1.1,0 1.3,0.3 0.5,0.8 -0.6,0.4 -1.3,2.5 -1.6,4.7 -0.4,4 -0.4,4 -0.5,-0.7 z" id="path16"></path>
    <path d="m 330,531.6 c -31.9,-13.9 -41,-18 -41,-18.8 0,-1 54.7,-28.4 55.5,-27.7 0.3,0.3 0.4,12.4 0.3,26.7 l -0.3,26.2 z" id="path17"></path>
    <path d="M 679,511.4 V 485 l 3.9,2 c 2.2,1.1 14.6,7.1 27.5,13.4 13,6.3 23.6,11.9 23.6,12.4 0,0.5 -1.2,1.5 -2.7,2.2 -3.4,1.5 -31.6,13.9 -43.5,19.1 l -8.8,3.7 z" id="path18"></path>
  </g></svg></g></g></svg>